# xmcd
#
# Track frame offsets:
#	150
#	18067
#	38905
#	57810
#	76565
#	90817
#	107355
#	126515
#	143832
#	163532
#
# Disc length: 2404 seconds
#
# Revision: 6
# Processed by: cddbd v1.5.2PL0 Copyright (c) Steve Scherf et al.
# Submitted via: audiograbber 1.83.01
#
DISCID=6609620a
DTITLE=Kenny Rogers - Eyes That See In The Dark
DYEAR=1983
DGENRE=Country
TTITLE0=This Woman
TTITLE1=You And I
TTITLE2=Buried Treasure
TTITLE3=Islands In The Stream (duet with Dolly Parton)
TTITLE4=Living With You
TTITLE5=Evening Star
TTITLE6=Hold Me
TTITLE7=Midsummer Nights
TTITLE8=I Will Always Love You
TTITLE9=Eyes That See In The Dark
EXTD=YEAR: 1983
EXTT0=
EXTT1=
EXTT2=
EXTT3=
EXTT4=
EXTT5=
EXTT6=
EXTT7=
EXTT8=
EXTT9=
PLAYORDER=
